<mxfile host="app.diagrams.net" modified="2022-06-04T02:19:00.448Z" agent="5.0 (Windows NT 10.0; Win64; x64) AppleWebKit/537.36 (KHTML, like Gecko) Chrome/102.0.0.0 Safari/537.36" etag="ehz_IhQP2ofO7xTUQ5uk" version="19.0.0" type="github">
  <diagram id="C5RBs43oDa-KdzZeNtuy" name="Page-1">
    <mxGraphModel dx="1145" dy="703" grid="1" gridSize="10" guides="1" tooltips="1" connect="1" arrows="1" fold="1" page="1" pageScale="1" pageWidth="827" pageHeight="1169" math="0" shadow="0">
      <root>
        <mxCell id="WIyWlLk6GJQsqaUBKTNV-0" />
        <mxCell id="WIyWlLk6GJQsqaUBKTNV-1" parent="WIyWlLk6GJQsqaUBKTNV-0" />
        <mxCell id="BvbL8W7-Rbym2epCoO1r-1" value="FiguraBasica" style="swimlane;fontStyle=2;fontFamily=Verdana;" vertex="1" parent="WIyWlLk6GJQsqaUBKTNV-1">
          <mxGeometry x="120" y="190" width="200" height="40" as="geometry" />
        </mxCell>
        <mxCell id="BvbL8W7-Rbym2epCoO1r-2" value="FiguraCompuesta" style="swimlane;" vertex="1" parent="WIyWlLk6GJQsqaUBKTNV-1">
          <mxGeometry x="110" y="50" width="220" height="70" as="geometry" />
        </mxCell>
        <mxCell id="BvbL8W7-Rbym2epCoO1r-4" value="- element: ArrayList&amp;lt;FiguraBasica&amp;gt;" style="text;html=1;strokeColor=none;fillColor=none;align=center;verticalAlign=middle;whiteSpace=wrap;rounded=0;" vertex="1" parent="BvbL8W7-Rbym2epCoO1r-2">
          <mxGeometry y="30" width="220" height="30" as="geometry" />
        </mxCell>
        <mxCell id="BvbL8W7-Rbym2epCoO1r-5" value="Elipse" style="swimlane;" vertex="1" parent="WIyWlLk6GJQsqaUBKTNV-1">
          <mxGeometry x="548" y="10" width="112" height="71" as="geometry" />
        </mxCell>
        <mxCell id="BvbL8W7-Rbym2epCoO1r-66" value="- eje: Punto&lt;br&gt;- radio : Double" style="text;html=1;strokeColor=none;fillColor=none;align=center;verticalAlign=middle;whiteSpace=wrap;rounded=0;" vertex="1" parent="BvbL8W7-Rbym2epCoO1r-5">
          <mxGeometry x="12" y="30" width="100.25" height="30" as="geometry" />
        </mxCell>
        <mxCell id="BvbL8W7-Rbym2epCoO1r-6" value="Poligono" style="swimlane;" vertex="1" parent="WIyWlLk6GJQsqaUBKTNV-1">
          <mxGeometry x="120" y="280" width="200" height="60" as="geometry">
            <mxRectangle x="120" y="280" width="80" height="23" as="alternateBounds" />
          </mxGeometry>
        </mxCell>
        <mxCell id="BvbL8W7-Rbym2epCoO1r-7" value="- lados: ArrayList&amp;lt;Lado&amp;gt;" style="text;html=1;strokeColor=none;fillColor=none;align=center;verticalAlign=middle;whiteSpace=wrap;rounded=0;" vertex="1" parent="BvbL8W7-Rbym2epCoO1r-6">
          <mxGeometry x="20" y="30" width="160" height="30" as="geometry" />
        </mxCell>
        <mxCell id="BvbL8W7-Rbym2epCoO1r-9" value="Lado" style="swimlane;startSize=23;" vertex="1" parent="WIyWlLk6GJQsqaUBKTNV-1">
          <mxGeometry x="450" y="280" width="110" height="60" as="geometry" />
        </mxCell>
        <mxCell id="BvbL8W7-Rbym2epCoO1r-10" value="- p1: Punto&lt;br&gt;- p2: Punto" style="text;html=1;strokeColor=none;fillColor=none;align=center;verticalAlign=middle;whiteSpace=wrap;rounded=0;" vertex="1" parent="BvbL8W7-Rbym2epCoO1r-9">
          <mxGeometry x="12" y="28" width="86" height="30" as="geometry" />
        </mxCell>
        <mxCell id="BvbL8W7-Rbym2epCoO1r-11" value="Punto" style="swimlane;" vertex="1" parent="WIyWlLk6GJQsqaUBKTNV-1">
          <mxGeometry x="640" y="281" width="80" height="60" as="geometry" />
        </mxCell>
        <mxCell id="BvbL8W7-Rbym2epCoO1r-12" value="- x: int&lt;br&gt;- y: int" style="text;html=1;strokeColor=none;fillColor=none;align=center;verticalAlign=middle;whiteSpace=wrap;rounded=0;" vertex="1" parent="BvbL8W7-Rbym2epCoO1r-11">
          <mxGeometry x="10" y="30" width="56" height="30" as="geometry" />
        </mxCell>
        <mxCell id="BvbL8W7-Rbym2epCoO1r-13" value="Cuadrilatero" style="swimlane;" vertex="1" parent="WIyWlLk6GJQsqaUBKTNV-1">
          <mxGeometry x="450" y="120" width="110" height="90" as="geometry" />
        </mxCell>
        <mxCell id="BvbL8W7-Rbym2epCoO1r-56" value="- lado1 : Lado&lt;br&gt;-lado2: Lado&lt;br&gt;- lado3: Lado&lt;br&gt;- lado4: Lado" style="text;html=1;strokeColor=none;fillColor=none;align=center;verticalAlign=middle;whiteSpace=wrap;rounded=0;" vertex="1" parent="BvbL8W7-Rbym2epCoO1r-13">
          <mxGeometry x="13" y="40" width="80.5" height="30" as="geometry" />
        </mxCell>
        <mxCell id="BvbL8W7-Rbym2epCoO1r-21" value="" style="endArrow=block;endSize=16;endFill=0;html=1;rounded=0;exitX=0;exitY=0.5;exitDx=0;exitDy=0;" edge="1" parent="WIyWlLk6GJQsqaUBKTNV-1" source="BvbL8W7-Rbym2epCoO1r-13">
          <mxGeometry width="160" relative="1" as="geometry">
            <mxPoint x="450" y="181" as="sourcePoint" />
            <mxPoint x="320" y="220" as="targetPoint" />
            <Array as="points" />
          </mxGeometry>
        </mxCell>
        <mxCell id="BvbL8W7-Rbym2epCoO1r-22" value="" style="endArrow=block;endSize=16;endFill=0;html=1;rounded=0;entryX=0.75;entryY=0;entryDx=0;entryDy=0;exitX=0;exitY=0.5;exitDx=0;exitDy=0;" edge="1" parent="WIyWlLk6GJQsqaUBKTNV-1" source="BvbL8W7-Rbym2epCoO1r-5" target="BvbL8W7-Rbym2epCoO1r-1">
          <mxGeometry width="160" relative="1" as="geometry">
            <mxPoint x="170" y="330" as="sourcePoint" />
            <mxPoint x="170" y="230" as="targetPoint" />
            <Array as="points" />
          </mxGeometry>
        </mxCell>
        <mxCell id="BvbL8W7-Rbym2epCoO1r-24" value="" style="endArrow=block;endSize=16;endFill=0;html=1;rounded=0;exitX=0.5;exitY=0;exitDx=0;exitDy=0;" edge="1" parent="WIyWlLk6GJQsqaUBKTNV-1" source="BvbL8W7-Rbym2epCoO1r-6">
          <mxGeometry width="160" relative="1" as="geometry">
            <mxPoint x="330" y="230" as="sourcePoint" />
            <mxPoint x="220" y="230" as="targetPoint" />
          </mxGeometry>
        </mxCell>
        <mxCell id="BvbL8W7-Rbym2epCoO1r-28" value="" style="endArrow=open;html=1;startArrow=none;startFill=0;edgeStyle=orthogonalEdgeStyle;rounded=0;entryX=0;entryY=0.5;entryDx=0;entryDy=0;exitX=1;exitY=0.5;exitDx=0;exitDy=0;" edge="1" parent="WIyWlLk6GJQsqaUBKTNV-1" source="BvbL8W7-Rbym2epCoO1r-6" target="BvbL8W7-Rbym2epCoO1r-9">
          <mxGeometry relative="1" as="geometry">
            <mxPoint x="350" y="310" as="sourcePoint" />
            <mxPoint x="530" y="330" as="targetPoint" />
          </mxGeometry>
        </mxCell>
        <mxCell id="BvbL8W7-Rbym2epCoO1r-29" value="1..*" style="edgeLabel;resizable=0;html=1;align=left;verticalAlign=top;" connectable="0" vertex="1" parent="BvbL8W7-Rbym2epCoO1r-28">
          <mxGeometry x="-1" relative="1" as="geometry">
            <mxPoint y="-20" as="offset" />
          </mxGeometry>
        </mxCell>
        <mxCell id="BvbL8W7-Rbym2epCoO1r-30" value="0..*" style="edgeLabel;resizable=0;html=1;align=right;verticalAlign=top;" connectable="0" vertex="1" parent="BvbL8W7-Rbym2epCoO1r-28">
          <mxGeometry x="1" relative="1" as="geometry">
            <mxPoint x="-10" y="-20" as="offset" />
          </mxGeometry>
        </mxCell>
        <mxCell id="BvbL8W7-Rbym2epCoO1r-39" value="" style="shape=image;html=1;verticalAlign=top;verticalLabelPosition=bottom;labelBackgroundColor=#ffffff;imageAspect=0;aspect=fixed;image=https://cdn1.iconfinder.com/data/icons/ionicons-fill-vol-2/512/navigate-128.png;fontSize=8;rotation=45;" vertex="1" parent="WIyWlLk6GJQsqaUBKTNV-1">
          <mxGeometry x="390" y="280" width="28" height="28" as="geometry" />
        </mxCell>
        <mxCell id="BvbL8W7-Rbym2epCoO1r-40" value="Tiene" style="text;html=1;strokeColor=none;fillColor=none;align=center;verticalAlign=middle;whiteSpace=wrap;rounded=0;" vertex="1" parent="WIyWlLk6GJQsqaUBKTNV-1">
          <mxGeometry x="360" y="280" width="40" height="30" as="geometry" />
        </mxCell>
        <mxCell id="BvbL8W7-Rbym2epCoO1r-41" value="" style="endArrow=open;html=1;startArrow=none;startFill=0;edgeStyle=orthogonalEdgeStyle;rounded=0;entryX=0;entryY=0.5;entryDx=0;entryDy=0;exitX=1;exitY=0.5;exitDx=0;exitDy=0;" edge="1" parent="WIyWlLk6GJQsqaUBKTNV-1" source="BvbL8W7-Rbym2epCoO1r-9" target="BvbL8W7-Rbym2epCoO1r-11">
          <mxGeometry relative="1" as="geometry">
            <mxPoint x="374" y="430" as="sourcePoint" />
            <mxPoint x="534" y="430" as="targetPoint" />
          </mxGeometry>
        </mxCell>
        <mxCell id="BvbL8W7-Rbym2epCoO1r-42" value="0..*" style="edgeLabel;resizable=0;html=1;align=left;verticalAlign=top;" connectable="0" vertex="1" parent="BvbL8W7-Rbym2epCoO1r-41">
          <mxGeometry x="-1" relative="1" as="geometry">
            <mxPoint x="10" as="offset" />
          </mxGeometry>
        </mxCell>
        <mxCell id="BvbL8W7-Rbym2epCoO1r-43" value="2" style="edgeLabel;resizable=0;html=1;align=right;verticalAlign=top;" connectable="0" vertex="1" parent="BvbL8W7-Rbym2epCoO1r-41">
          <mxGeometry x="1" relative="1" as="geometry">
            <mxPoint x="-10" as="offset" />
          </mxGeometry>
        </mxCell>
        <mxCell id="BvbL8W7-Rbym2epCoO1r-45" value="Tiene" style="text;html=1;strokeColor=none;fillColor=none;align=center;verticalAlign=middle;whiteSpace=wrap;rounded=0;" vertex="1" parent="WIyWlLk6GJQsqaUBKTNV-1">
          <mxGeometry x="570" y="278" width="40" height="30" as="geometry" />
        </mxCell>
        <mxCell id="BvbL8W7-Rbym2epCoO1r-46" value="" style="shape=image;html=1;verticalAlign=top;verticalLabelPosition=bottom;labelBackgroundColor=#ffffff;imageAspect=0;aspect=fixed;image=https://cdn1.iconfinder.com/data/icons/ionicons-fill-vol-2/512/navigate-128.png;fontSize=8;rotation=40;" vertex="1" parent="WIyWlLk6GJQsqaUBKTNV-1">
          <mxGeometry x="600" y="281" width="28" height="28" as="geometry" />
        </mxCell>
        <mxCell id="BvbL8W7-Rbym2epCoO1r-49" value="1" style="endArrow=open;html=1;endSize=12;startArrow=diamondThin;startSize=14;startFill=0;edgeStyle=orthogonalEdgeStyle;align=left;verticalAlign=bottom;rounded=0;fontSize=8;entryX=0.5;entryY=0;entryDx=0;entryDy=0;exitX=0.5;exitY=1;exitDx=0;exitDy=0;" edge="1" parent="WIyWlLk6GJQsqaUBKTNV-1" source="BvbL8W7-Rbym2epCoO1r-2">
          <mxGeometry x="-0.4286" y="10" relative="1" as="geometry">
            <mxPoint x="220" y="90" as="sourcePoint" />
            <mxPoint x="220" y="190" as="targetPoint" />
            <mxPoint as="offset" />
          </mxGeometry>
        </mxCell>
        <mxCell id="BvbL8W7-Rbym2epCoO1r-52" value="*" style="text;html=1;strokeColor=none;fillColor=none;align=center;verticalAlign=middle;whiteSpace=wrap;rounded=0;fontSize=8;" vertex="1" parent="WIyWlLk6GJQsqaUBKTNV-1">
          <mxGeometry x="230" y="170" width="10" height="11" as="geometry" />
        </mxCell>
        <mxCell id="BvbL8W7-Rbym2epCoO1r-60" value="" style="endArrow=open;html=1;startArrow=none;startFill=0;edgeStyle=orthogonalEdgeStyle;rounded=0;entryX=0.5;entryY=0;entryDx=0;entryDy=0;exitX=0.5;exitY=1;exitDx=0;exitDy=0;" edge="1" parent="WIyWlLk6GJQsqaUBKTNV-1" source="BvbL8W7-Rbym2epCoO1r-13" target="BvbL8W7-Rbym2epCoO1r-9">
          <mxGeometry relative="1" as="geometry">
            <mxPoint x="500" y="230" as="sourcePoint" />
            <mxPoint x="450" y="310" as="targetPoint" />
            <Array as="points">
              <mxPoint x="505" y="230" />
              <mxPoint x="505" y="230" />
            </Array>
          </mxGeometry>
        </mxCell>
        <mxCell id="BvbL8W7-Rbym2epCoO1r-61" value="0..*" style="edgeLabel;resizable=0;html=1;align=left;verticalAlign=top;" connectable="0" vertex="1" parent="BvbL8W7-Rbym2epCoO1r-60">
          <mxGeometry x="-1" relative="1" as="geometry">
            <mxPoint x="5" as="offset" />
          </mxGeometry>
        </mxCell>
        <mxCell id="BvbL8W7-Rbym2epCoO1r-62" value="4" style="edgeLabel;resizable=0;html=1;align=right;verticalAlign=top;" connectable="0" vertex="1" parent="BvbL8W7-Rbym2epCoO1r-60">
          <mxGeometry x="1" relative="1" as="geometry">
            <mxPoint x="15" y="-30" as="offset" />
          </mxGeometry>
        </mxCell>
        <mxCell id="BvbL8W7-Rbym2epCoO1r-63" value="" style="shape=image;html=1;verticalAlign=top;verticalLabelPosition=bottom;labelBackgroundColor=#ffffff;imageAspect=0;aspect=fixed;image=https://cdn1.iconfinder.com/data/icons/ionicons-fill-vol-2/512/navigate-128.png;fontSize=8;rotation=-225;" vertex="1" parent="WIyWlLk6GJQsqaUBKTNV-1">
          <mxGeometry x="520" y="235" width="28" height="28" as="geometry" />
        </mxCell>
        <mxCell id="BvbL8W7-Rbym2epCoO1r-64" value="se forma" style="text;html=1;strokeColor=none;fillColor=none;align=center;verticalAlign=middle;whiteSpace=wrap;rounded=0;" vertex="1" parent="WIyWlLk6GJQsqaUBKTNV-1">
          <mxGeometry x="504" y="230" width="66" height="10" as="geometry" />
        </mxCell>
        <mxCell id="BvbL8W7-Rbym2epCoO1r-65" value="&lt;p style=&quot;margin:0px;margin-top:4px;text-align:center;text-decoration:underline;&quot;&gt;&lt;b&gt;cubo: FiguraCompueta&lt;/b&gt;&lt;/p&gt;&lt;hr&gt;&lt;p style=&quot;margin:0px;margin-left:8px;&quot;&gt;element = [figura1, figura2]&lt;/p&gt;" style="verticalAlign=top;align=left;overflow=fill;fontSize=12;fontFamily=Helvetica;html=1;" vertex="1" parent="WIyWlLk6GJQsqaUBKTNV-1">
          <mxGeometry x="94" y="430" width="160" height="60" as="geometry" />
        </mxCell>
        <mxCell id="BvbL8W7-Rbym2epCoO1r-67" value="" style="endArrow=open;html=1;startArrow=none;startFill=0;edgeStyle=orthogonalEdgeStyle;rounded=0;exitX=0.5;exitY=1;exitDx=0;exitDy=0;entryX=0.5;entryY=0;entryDx=0;entryDy=0;" edge="1" parent="WIyWlLk6GJQsqaUBKTNV-1" source="BvbL8W7-Rbym2epCoO1r-5" target="BvbL8W7-Rbym2epCoO1r-11">
          <mxGeometry relative="1" as="geometry">
            <mxPoint x="505" y="210" as="sourcePoint" />
            <mxPoint x="680" y="270" as="targetPoint" />
            <Array as="points">
              <mxPoint x="604" y="170" />
              <mxPoint x="680" y="170" />
            </Array>
          </mxGeometry>
        </mxCell>
        <mxCell id="BvbL8W7-Rbym2epCoO1r-68" value="0..*" style="edgeLabel;resizable=0;html=1;align=left;verticalAlign=top;" connectable="0" vertex="1" parent="BvbL8W7-Rbym2epCoO1r-67">
          <mxGeometry x="-1" relative="1" as="geometry">
            <mxPoint x="5" as="offset" />
          </mxGeometry>
        </mxCell>
        <mxCell id="BvbL8W7-Rbym2epCoO1r-69" value="1" style="edgeLabel;resizable=0;html=1;align=right;verticalAlign=top;" connectable="0" vertex="1" parent="BvbL8W7-Rbym2epCoO1r-67">
          <mxGeometry x="1" relative="1" as="geometry">
            <mxPoint x="15" y="-30" as="offset" />
          </mxGeometry>
        </mxCell>
        <mxCell id="BvbL8W7-Rbym2epCoO1r-70" value="Tiene" style="text;html=1;strokeColor=none;fillColor=none;align=center;verticalAlign=middle;whiteSpace=wrap;rounded=0;" vertex="1" parent="WIyWlLk6GJQsqaUBKTNV-1">
          <mxGeometry x="613" y="120" width="66" height="10" as="geometry" />
        </mxCell>
        <mxCell id="BvbL8W7-Rbym2epCoO1r-71" value="" style="shape=image;html=1;verticalAlign=top;verticalLabelPosition=bottom;labelBackgroundColor=#ffffff;imageAspect=0;aspect=fixed;image=https://cdn1.iconfinder.com/data/icons/ionicons-fill-vol-2/512/navigate-128.png;fontSize=8;rotation=-225;" vertex="1" parent="WIyWlLk6GJQsqaUBKTNV-1">
          <mxGeometry x="632" y="130" width="28" height="28" as="geometry" />
        </mxCell>
        <mxCell id="BvbL8W7-Rbym2epCoO1r-75" value="figura1: Poligono" style="swimlane;fontStyle=5" vertex="1" parent="WIyWlLk6GJQsqaUBKTNV-1">
          <mxGeometry x="290" y="430" width="200" height="60" as="geometry">
            <mxRectangle x="120" y="280" width="80" height="23" as="alternateBounds" />
          </mxGeometry>
        </mxCell>
        <mxCell id="BvbL8W7-Rbym2epCoO1r-76" value="-lados = [lado1, lado2, lado3]" style="text;html=1;strokeColor=none;fillColor=none;align=center;verticalAlign=middle;whiteSpace=wrap;rounded=0;" vertex="1" parent="BvbL8W7-Rbym2epCoO1r-75">
          <mxGeometry x="20" y="30" width="160" height="30" as="geometry" />
        </mxCell>
        <mxCell id="BvbL8W7-Rbym2epCoO1r-77" value="lado1:Lado" style="swimlane;fontStyle=5;startSize=23;" vertex="1" parent="WIyWlLk6GJQsqaUBKTNV-1">
          <mxGeometry x="554" y="380" width="100" height="60" as="geometry">
            <mxRectangle x="120" y="280" width="80" height="23" as="alternateBounds" />
          </mxGeometry>
        </mxCell>
        <mxCell id="BvbL8W7-Rbym2epCoO1r-78" value="-p1 = punto1&lt;br&gt;-p2 = punto2" style="text;html=1;strokeColor=none;fillColor=none;align=center;verticalAlign=middle;whiteSpace=wrap;rounded=0;" vertex="1" parent="BvbL8W7-Rbym2epCoO1r-77">
          <mxGeometry x="20" y="30" width="70" height="30" as="geometry" />
        </mxCell>
        <mxCell id="BvbL8W7-Rbym2epCoO1r-79" value="punto1:Punto" style="swimlane;fontStyle=5" vertex="1" parent="WIyWlLk6GJQsqaUBKTNV-1">
          <mxGeometry x="706" y="400" width="80" height="60" as="geometry">
            <mxRectangle x="120" y="280" width="80" height="23" as="alternateBounds" />
          </mxGeometry>
        </mxCell>
        <mxCell id="BvbL8W7-Rbym2epCoO1r-80" value="- x = 3&lt;br&gt;-y = 8" style="text;html=1;strokeColor=none;fillColor=none;align=center;verticalAlign=middle;whiteSpace=wrap;rounded=0;" vertex="1" parent="BvbL8W7-Rbym2epCoO1r-79">
          <mxGeometry x="20" y="30" width="40" height="30" as="geometry" />
        </mxCell>
        <mxCell id="BvbL8W7-Rbym2epCoO1r-82" value="punto2 :Punto" style="swimlane;fontStyle=5" vertex="1" parent="WIyWlLk6GJQsqaUBKTNV-1">
          <mxGeometry x="704" y="490" width="84" height="60" as="geometry">
            <mxRectangle x="120" y="280" width="80" height="23" as="alternateBounds" />
          </mxGeometry>
        </mxCell>
        <mxCell id="BvbL8W7-Rbym2epCoO1r-111" style="edgeStyle=none;rounded=0;orthogonalLoop=1;jettySize=auto;html=1;fontFamily=Verdana;fontSize=8;startArrow=none;startFill=0;" edge="1" parent="BvbL8W7-Rbym2epCoO1r-82" source="BvbL8W7-Rbym2epCoO1r-83" target="BvbL8W7-Rbym2epCoO1r-82">
          <mxGeometry relative="1" as="geometry" />
        </mxCell>
        <mxCell id="BvbL8W7-Rbym2epCoO1r-83" value="- x = 6&lt;br&gt;- y = 8" style="text;html=1;strokeColor=none;fillColor=none;align=center;verticalAlign=middle;whiteSpace=wrap;rounded=0;" vertex="1" parent="BvbL8W7-Rbym2epCoO1r-82">
          <mxGeometry y="30" width="60" height="30" as="geometry" />
        </mxCell>
        <mxCell id="BvbL8W7-Rbym2epCoO1r-84" value="punto3 :Punto" style="swimlane;fontStyle=5" vertex="1" parent="WIyWlLk6GJQsqaUBKTNV-1">
          <mxGeometry x="706" y="650" width="90" height="60" as="geometry">
            <mxRectangle x="120" y="280" width="80" height="23" as="alternateBounds" />
          </mxGeometry>
        </mxCell>
        <mxCell id="BvbL8W7-Rbym2epCoO1r-85" value="- x = 3&lt;br&gt;- y = 5" style="text;html=1;strokeColor=none;fillColor=none;align=center;verticalAlign=middle;whiteSpace=wrap;rounded=0;" vertex="1" parent="BvbL8W7-Rbym2epCoO1r-84">
          <mxGeometry x="20" y="30" width="60" height="30" as="geometry" />
        </mxCell>
        <mxCell id="BvbL8W7-Rbym2epCoO1r-86" value="figura2: Elipse" style="swimlane;fontStyle=5" vertex="1" parent="WIyWlLk6GJQsqaUBKTNV-1">
          <mxGeometry x="344" y="550" width="106" height="60" as="geometry">
            <mxRectangle x="120" y="280" width="80" height="23" as="alternateBounds" />
          </mxGeometry>
        </mxCell>
        <mxCell id="BvbL8W7-Rbym2epCoO1r-87" value="- eje = pinto3&lt;br&gt;- radio = 12" style="text;html=1;strokeColor=none;fillColor=none;align=center;verticalAlign=middle;whiteSpace=wrap;rounded=0;" vertex="1" parent="BvbL8W7-Rbym2epCoO1r-86">
          <mxGeometry x="10" y="24" width="80" height="30" as="geometry" />
        </mxCell>
        <mxCell id="BvbL8W7-Rbym2epCoO1r-88" value="lado2:Lado" style="swimlane;fontStyle=5;startSize=23;" vertex="1" parent="WIyWlLk6GJQsqaUBKTNV-1">
          <mxGeometry x="540" y="460" width="100" height="60" as="geometry">
            <mxRectangle x="120" y="280" width="80" height="23" as="alternateBounds" />
          </mxGeometry>
        </mxCell>
        <mxCell id="BvbL8W7-Rbym2epCoO1r-89" value="-p1 = punto3&lt;br&gt;-p2 = punto4" style="text;html=1;strokeColor=none;fillColor=none;align=center;verticalAlign=middle;whiteSpace=wrap;rounded=0;" vertex="1" parent="BvbL8W7-Rbym2epCoO1r-88">
          <mxGeometry x="10" y="30" width="80" height="30" as="geometry" />
        </mxCell>
        <mxCell id="BvbL8W7-Rbym2epCoO1r-90" value="lado3:Lado" style="swimlane;fontStyle=5;startSize=23;" vertex="1" parent="WIyWlLk6GJQsqaUBKTNV-1">
          <mxGeometry x="548" y="550" width="100" height="60" as="geometry">
            <mxRectangle x="120" y="280" width="80" height="23" as="alternateBounds" />
          </mxGeometry>
        </mxCell>
        <mxCell id="BvbL8W7-Rbym2epCoO1r-91" value="-p1 = punto1&lt;br&gt;-p2 = punto4" style="text;html=1;strokeColor=none;fillColor=none;align=center;verticalAlign=middle;whiteSpace=wrap;rounded=0;" vertex="1" parent="BvbL8W7-Rbym2epCoO1r-90">
          <mxGeometry x="20" y="30" width="70" height="30" as="geometry" />
        </mxCell>
        <mxCell id="BvbL8W7-Rbym2epCoO1r-92" value="punto4 :Punto" style="swimlane;fontStyle=5" vertex="1" parent="WIyWlLk6GJQsqaUBKTNV-1">
          <mxGeometry x="706" y="570" width="90" height="60" as="geometry">
            <mxRectangle x="120" y="280" width="80" height="23" as="alternateBounds" />
          </mxGeometry>
        </mxCell>
        <mxCell id="BvbL8W7-Rbym2epCoO1r-93" value="- x = 6&lt;br&gt;- y = 5" style="text;html=1;strokeColor=none;fillColor=none;align=center;verticalAlign=middle;whiteSpace=wrap;rounded=0;" vertex="1" parent="BvbL8W7-Rbym2epCoO1r-92">
          <mxGeometry x="20" y="30" width="60" height="30" as="geometry" />
        </mxCell>
        <mxCell id="BvbL8W7-Rbym2epCoO1r-95" value="" style="endArrow=none;html=1;rounded=0;fontFamily=Verdana;fontSize=8;entryX=0.5;entryY=1;entryDx=0;entryDy=0;exitX=0;exitY=0.5;exitDx=0;exitDy=0;" edge="1" parent="WIyWlLk6GJQsqaUBKTNV-1" source="BvbL8W7-Rbym2epCoO1r-86" target="BvbL8W7-Rbym2epCoO1r-65">
          <mxGeometry width="50" height="50" relative="1" as="geometry">
            <mxPoint x="310" y="580" as="sourcePoint" />
            <mxPoint x="360" y="530" as="targetPoint" />
          </mxGeometry>
        </mxCell>
        <mxCell id="BvbL8W7-Rbym2epCoO1r-97" value="" style="endArrow=none;html=1;rounded=0;fontFamily=Verdana;fontSize=8;exitX=1;exitY=0.5;exitDx=0;exitDy=0;entryX=0;entryY=0.5;entryDx=0;entryDy=0;" edge="1" parent="WIyWlLk6GJQsqaUBKTNV-1" source="BvbL8W7-Rbym2epCoO1r-65" target="BvbL8W7-Rbym2epCoO1r-75">
          <mxGeometry width="50" height="50" relative="1" as="geometry">
            <mxPoint x="310" y="580" as="sourcePoint" />
            <mxPoint x="270" y="470" as="targetPoint" />
          </mxGeometry>
        </mxCell>
        <mxCell id="BvbL8W7-Rbym2epCoO1r-98" value="" style="endArrow=none;html=1;rounded=0;fontFamily=Verdana;fontSize=8;exitX=0.5;exitY=1;exitDx=0;exitDy=0;entryX=0;entryY=0.5;entryDx=0;entryDy=0;" edge="1" parent="WIyWlLk6GJQsqaUBKTNV-1" source="BvbL8W7-Rbym2epCoO1r-86" target="BvbL8W7-Rbym2epCoO1r-84">
          <mxGeometry width="50" height="50" relative="1" as="geometry">
            <mxPoint x="540" y="570" as="sourcePoint" />
            <mxPoint x="590" y="520" as="targetPoint" />
          </mxGeometry>
        </mxCell>
        <mxCell id="BvbL8W7-Rbym2epCoO1r-99" value="" style="endArrow=none;html=1;rounded=0;fontFamily=Verdana;fontSize=8;entryX=0;entryY=0.5;entryDx=0;entryDy=0;exitX=1;exitY=0.5;exitDx=0;exitDy=0;" edge="1" parent="WIyWlLk6GJQsqaUBKTNV-1" source="BvbL8W7-Rbym2epCoO1r-75" target="BvbL8W7-Rbym2epCoO1r-77">
          <mxGeometry width="50" height="50" relative="1" as="geometry">
            <mxPoint x="470" y="470" as="sourcePoint" />
            <mxPoint x="590" y="520" as="targetPoint" />
          </mxGeometry>
        </mxCell>
        <mxCell id="BvbL8W7-Rbym2epCoO1r-100" value="" style="endArrow=none;html=1;rounded=0;fontFamily=Verdana;fontSize=8;exitX=1;exitY=0.5;exitDx=0;exitDy=0;entryX=0;entryY=0.5;entryDx=0;entryDy=0;" edge="1" parent="WIyWlLk6GJQsqaUBKTNV-1" source="BvbL8W7-Rbym2epCoO1r-75" target="BvbL8W7-Rbym2epCoO1r-90">
          <mxGeometry width="50" height="50" relative="1" as="geometry">
            <mxPoint x="470" y="470" as="sourcePoint" />
            <mxPoint x="590" y="520" as="targetPoint" />
          </mxGeometry>
        </mxCell>
        <mxCell id="BvbL8W7-Rbym2epCoO1r-102" value="" style="endArrow=none;html=1;rounded=0;fontFamily=Verdana;fontSize=8;entryX=0;entryY=0.5;entryDx=0;entryDy=0;exitX=1;exitY=0.5;exitDx=0;exitDy=0;" edge="1" parent="WIyWlLk6GJQsqaUBKTNV-1" source="BvbL8W7-Rbym2epCoO1r-75" target="BvbL8W7-Rbym2epCoO1r-88">
          <mxGeometry width="50" height="50" relative="1" as="geometry">
            <mxPoint x="540" y="570" as="sourcePoint" />
            <mxPoint x="590" y="520" as="targetPoint" />
          </mxGeometry>
        </mxCell>
        <mxCell id="BvbL8W7-Rbym2epCoO1r-103" value="" style="endArrow=none;html=1;rounded=0;fontFamily=Verdana;fontSize=8;entryX=0;entryY=0.5;entryDx=0;entryDy=0;exitX=1;exitY=0.5;exitDx=0;exitDy=0;" edge="1" parent="WIyWlLk6GJQsqaUBKTNV-1" source="BvbL8W7-Rbym2epCoO1r-77" target="BvbL8W7-Rbym2epCoO1r-79">
          <mxGeometry width="50" height="50" relative="1" as="geometry">
            <mxPoint x="540" y="570" as="sourcePoint" />
            <mxPoint x="590" y="520" as="targetPoint" />
          </mxGeometry>
        </mxCell>
        <mxCell id="BvbL8W7-Rbym2epCoO1r-105" value="" style="endArrow=none;html=1;rounded=0;fontFamily=Verdana;fontSize=8;entryX=0;entryY=0.5;entryDx=0;entryDy=0;exitX=1;exitY=0.5;exitDx=0;exitDy=0;" edge="1" parent="WIyWlLk6GJQsqaUBKTNV-1" source="BvbL8W7-Rbym2epCoO1r-90" target="BvbL8W7-Rbym2epCoO1r-79">
          <mxGeometry width="50" height="50" relative="1" as="geometry">
            <mxPoint x="540" y="570" as="sourcePoint" />
            <mxPoint x="590" y="520" as="targetPoint" />
          </mxGeometry>
        </mxCell>
        <mxCell id="BvbL8W7-Rbym2epCoO1r-106" value="" style="endArrow=none;html=1;rounded=0;fontFamily=Verdana;fontSize=8;exitX=1;exitY=0.5;exitDx=0;exitDy=0;entryX=0;entryY=0.5;entryDx=0;entryDy=0;" edge="1" parent="WIyWlLk6GJQsqaUBKTNV-1" source="BvbL8W7-Rbym2epCoO1r-88" target="BvbL8W7-Rbym2epCoO1r-84">
          <mxGeometry width="50" height="50" relative="1" as="geometry">
            <mxPoint x="540" y="570" as="sourcePoint" />
            <mxPoint x="590" y="520" as="targetPoint" />
          </mxGeometry>
        </mxCell>
        <mxCell id="BvbL8W7-Rbym2epCoO1r-107" value="" style="endArrow=none;html=1;rounded=0;fontFamily=Verdana;fontSize=8;exitX=0;exitY=0.25;exitDx=0;exitDy=0;entryX=1;entryY=0.5;entryDx=0;entryDy=0;" edge="1" parent="WIyWlLk6GJQsqaUBKTNV-1" source="BvbL8W7-Rbym2epCoO1r-83" target="BvbL8W7-Rbym2epCoO1r-77">
          <mxGeometry width="50" height="50" relative="1" as="geometry">
            <mxPoint x="540" y="570" as="sourcePoint" />
            <mxPoint x="460" y="580" as="targetPoint" />
          </mxGeometry>
        </mxCell>
        <mxCell id="BvbL8W7-Rbym2epCoO1r-109" value="" style="endArrow=none;html=1;rounded=0;fontFamily=Verdana;fontSize=8;entryX=0;entryY=0.5;entryDx=0;entryDy=0;exitX=1;exitY=0.5;exitDx=0;exitDy=0;" edge="1" parent="WIyWlLk6GJQsqaUBKTNV-1" source="BvbL8W7-Rbym2epCoO1r-88" target="BvbL8W7-Rbym2epCoO1r-92">
          <mxGeometry width="50" height="50" relative="1" as="geometry">
            <mxPoint x="650" y="490" as="sourcePoint" />
            <mxPoint x="590" y="520" as="targetPoint" />
          </mxGeometry>
        </mxCell>
      </root>
    </mxGraphModel>
  </diagram>
</mxfile>
